#!OML:ASF H:\BabyWalks\Project 1\Capture day 1\Session 1\baby.ASF
:FULLY-SPECIFIED
:DEGREES
427
root -10.1699 17.5299 -10.3842 -107.927 81.0081 -118.462
lowerback 17.636 1.24349 -2.66752
upperback 5.12278 1.42321 -0.77322
thorax -4.42316 0.832932 0.384699
lowerneck 1.96667 1.28796 5.15585
upperneck -22.3768 3.59729 2.4994
head -7.15322 1.46371 -0.341193
rclavicle 1.43125e-014 -3.33958e-014
rhumerus -43.0039 8.40369 -87.6396
rradius 52.9419
rwrist -1.38994
rhand -7.49975 -14.8922
rfingers 7.12502
rthumb 18.3901 -44.0429
lclavicle 1.43125e-014 -3.33958e-014
lhumerus -38.4096 -5.05826 75.2354
lradius 59.2651
lwrist 8.38441
lhand -5.10049 11.7106
lfingers 7.12502
lthumb 20.6969 40.627
rfemur 8.46544 21.3185 21.0688
rtibia 1.27222e-014
rfoot -11.6246 5.33808
rtoes -15.0852
lfemur -35.7783 -0.154491 -6.20914
ltibia 44.9283
lfoot -21.4879 -10.4226
ltoes -1.8726
428
root -10.1795 17.5288 -10.3665 -108.351 81.0342 -118.823
lowerback 17.6079 1.23874 -2.60913
upperback 5.12147 1.42889 -0.748163
thorax -4.40938 0.835193 0.377618
lowerneck 1.9958 1.35749 5.21791
upperneck -22.3274 3.6582 2.32312
head -7.13622 1.5016 -0.412375
rclavicle 0 -3.02153e-014
rhumerus -43.0193 8.43993 -87.6605
rradius 52.9232
rwrist -1.34179
rhand -7.51706 -14.8629
rfingers 7.12502
rthumb 18.3735 -44.0152
lclavicle 0 -3.02153e-014
lhumerus -38.4334 -4.90898 75.2571
lradius 58.6866
lwrist 8.1176
lhand -4.94777 11.7237
lfingers 7.12502
lthumb 20.8436 40.6241
rfemur 8.5278 21.2794 21.1096
rtibia 3.18055e-015
rfoot -11.7325 5.31063
rtoes -14.9343
lfemur -35.7502 -0.175041 -6.1952
ltibia 44.8991
lfoot -21.4119 -10.4914
ltoes -1.92276
429
root -10.1896 17.5277 -10.3483 -108.77 81.0554 -119.175
lowerback 17.5762 1.23535 -2.53143
upperback 5.11774 1.43939 -0.725459
thorax -4.39597 0.839719 0.356154
lowerneck 2.02898 1.44355 5.30271
upperneck -22.2725 3.73594 2.10791
head -7.11647 1.54895 -0.500947
rclavicle 7.15625e-015 2.22639e-014
rhumerus -43.0379 8.45478 -87.6785
rradius 52.9086
rwrist -1.30056
rhand -7.51804 -14.8386
rfingers 7.12502
rthumb 18.3725 -43.991
lclavicle 7.15625e-015 2.22639e-014
lhumerus -38.4661 -4.77163 75.2712
lradius 58.117
lwrist 7.85765
lhand -4.8055 11.7522
lfingers 7.12502
lthumb 20.9803 40.6375
rfemur 8.59229 21.2402 21.1595
rtibia -6.36111e-015
rfoot -11.8371 5.2829
rtoes -14.7598
lfemur -35.7169 -0.204574 -6.17139
ltibia 44.8657
lfoot -21.3377 -10.5506
ltoes -1.9763
430
root -10.2004 17.5265 -10.3292 -109.193 81.0728 -119.524
lowerback 17.5392 1.23621 -2.4446
upperback 5.1139 1.45726 -0.699034
thorax -4.37991 0.847781 0.332039
lowerneck 2.06626 1.54877 5.41159
upperneck -22.2097 3.83119 1.84048
head -7.09256 1.60704 -0.611376
rclavicle -1.59028e-015 6.36111e-015
rhumerus -43.0615 8.4534 -87.6861
rradius 52.9054
rwrist -1.28059
rhand -7.50044 -14.8278
rfingers 7.12502
rthumb 18.3895 -43.9786
lclavicle -1.59028e-015 6.36111e-015
lhumerus -38.5035 -4.64145 75.2876
lradius 57.5523
lwrist 7.59992
lhand -4.66889 11.7859
lfingers 7.12502
lthumb 21.1115 40.6566
rfemur 8.66386 21.2 21.2198
rtibia 6.36111e-015
rfoot -11.9398 5.2505
rtoes -14.5798
lfemur -35.6736 -0.244336 -6.13923
ltibia 44.8264
lfoot -21.2677 -10.5979
ltoes -2.03986
431
root -10.2119 17.5252 -10.3096 -109.607 81.0922 -119.857
lowerback 17.4994 1.24099 -2.34359
upperback 5.10731 1.48229 -0.675565
thorax -4.36508 0.85929 0.295299
lowerneck 2.10238 1.67952 5.54115
upperneck -22.1327 3.95281 1.52503
head -7.06125 1.68035 -0.742044
rclavicle -2.46493e-014 -3.49861e-014
rhumerus -43.0892 8.43725 -87.6878
rradius 52.9084
rwrist -1.27352
rhand -7.47749 -14.8229
rfingers 7.12502
rthumb 18.4115 -43.9715
lclavicle -2.46493e-014 -3.49861e-014
lhumerus -38.5456 -4.52755 75.2996
lradius 56.9944
lwrist 7.34726
lhand -4.54345 11.8315
lfingers 7.12502
lthumb 21.232 40.6887
rfemur 8.73827 21.1625 21.283
rtibia 0
rfoot -12.039 5.21341
rtoes -14.384
lfemur -35.6209 -0.291061 -6.10526
ltibia 44.7788
lfoot -21.1987 -10.631
ltoes -2.11487
432
root -10.2241 17.524 -10.2893 -110.009 81.1141 -120.172
lowerback 17.4569 1.24508 -2.23673
upperback 5.09973 1.5075 -0.647795
thorax -4.34974 0.87082 0.259839
lowerneck 2.13757 1.84859 5.6718
upperneck -22.0403 4.11578 1.15752
head -7.02158 1.77797 -0.891744
rclavicle 4.77083e-015 2.54444e-014
rhumerus -43.1178 8.42485 -87.6826
rradius 52.9163
rwrist -1.27326
rhand -7.45994 -14.8213
rfingers 7.12502
rthumb 18.4284 -43.9684
lclavicle 4.77083e-015 2.54444e-014
lhumerus -38.6008 -4.4077 75.3125
lradius 56.4537
lwrist 7.10248
lhand -4.42015 11.8851
lfingers 7.12502
lthumb 21.3504 40.7289
rfemur 8.81674 21.1285 21.3488
rtibia 3.18055e-014
rfoot -12.1331 5.17311
rtoes -14.1857
lfemur -35.5558 -0.346249 -6.06971
ltibia 44.7204
lfoot -21.1313 -10.6471
ltoes -2.20275
433
root -10.237 17.5228 -10.2684 -110.411 81.143 -120.478
lowerback 17.4135 1.26 -2.11568
upperback 5.088 1.54854 -0.627984
thorax -4.3381 0.890079 0.204606
lowerneck 2.1934 2.05416 5.82828
upperneck -21.9524 4.32144 0.727897
head -6.98271 1.89906 -1.06843
rclavicle 3.97569e-015 -3.81667e-014
rhumerus -43.1548 8.36247 -87.6704
rradius 52.93
rwrist -1.27969
rhand -7.42242 -14.8299
rfingers 7.12502
rthumb 18.4645 -43.9736
lclavicle 3.97569e-015 -3.81667e-014
lhumerus -38.6522 -4.32875 75.3237
lradius 55.9186
lwrist 6.86269
lhand -4.31168 11.978
lfingers 7.12502
lthumb 21.4546 40.81
rfemur 8.90176 21.0979 21.4135
rtibia -1.27222e-014
rfoot -12.2223 5.13109
rtoes -13.9834
lfemur -35.4754 -0.411064 -6.03683
ltibia 44.6491
lfoot -21.0621 -10.6478
ltoes -2.30248
434
root -10.2505 17.5217 -10.2469 -110.839 81.1822 -120.8
lowerback 17.3698 1.27367 -1.99973
upperback 5.07744 1.58731 -0.603268
thorax -4.32508 0.908246 0.157986
lowerneck 2.25093 2.3161 5.97851
upperneck -21.8622 4.59139 0.230045
head -6.93789 2.05752 -1.26943
rclavicle -1.03368e-014 4.77083e-015
rhumerus -43.1872 8.30545 -87.6467
rradius 52.945
rwrist -1.2787
rhand -7.37786 -14.8457
rfingers 7.12502
rthumb 18.5074 -43.9853
lclavicle -1.03368e-014 4.77083e-015
lhumerus -38.7088 -4.23486 75.3384
lradius 55.3925
lwrist 6.6232
lhand -4.20205 12.0659
lfingers 7.12502
lthumb 21.5599 40.8859
rfemur 8.99726 21.0685 21.4733
rtibia 4.13472e-014
rfoot -12.3072 5.08626
rtoes -13.7766
lfemur -35.3762 -0.489922 -6.01164
ltibia 44.5633
lfoot -20.9906 -10.6302
ltoes -2.4153
435
root -10.2647 17.5207 -10.2247 -111.286 81.2317 -121.132
lowerback 17.3259 1.29064 -1.87747
upperback 5.06476 1.63111 -0.581138
thorax -4.31393 0.928856 0.104027
lowerneck 2.3178 2.631 6.14501
upperneck -21.7642 4.92164 -0.343204
head -6.88522 2.2502 -1.50021
rclavicle -2.3059e-014 2.46493e-014
rhumerus -43.2191 8.2304 -87.6171
rradius 52.9571
rwrist -1.26906
rhand -7.3319 -14.8636
rfingers 7.12502
rthumb 18.5516 -43.999
lclavicle -2.3059e-014 2.46493e-014
lhumerus -38.7653 -4.15216 75.3518
lradius 54.8733
lwrist 6.3778
lhand -4.08381 12.1441
lfingers 7.12502
lthumb 21.6735 40.9509
rfemur 9.10053 21.0417 21.5261
rtibia 2.22639e-014
rfoot -12.3881 5.04316
rtoes -13.5596
lfemur -35.2609 -0.581642 -5.99344
ltibia 44.4627
lfoot -20.9125 -10.5988
ltoes -2.53118
436
root -10.2796 17.5199 -10.2017 -111.772 81.2931 -121.49
lowerback 17.2831 1.31054 -1.75488
upperback 5.05291 1.67876 -0.559235
thorax -4.30233 0.951407 0.0488844
lowerneck 2.38311 3.00146 6.32667
upperneck -21.6453 5.31394 -0.993319
head -6.81702 2.47847 -1.7601
rclavicle -3.97569e-015 -3.02153e-014
rhumerus -43.2413 8.1435 -87.5769
rradius 52.9597
rwrist -1.24926
rhand -7.28341 -14.8821
rfingers 7.12502
rthumb 18.5982 -44.0131
lclavicle -3.97569e-015 -3.02153e-014
lhumerus -38.8191 -4.07835 75.3693
lradius 54.3649
lwrist 6.13088
lhand -3.97426 12.2504
lfingers 7.12502
lthumb 21.7787 41.0451
rfemur 9.21686 21.0155 21.5734
rtibia 1.59028e-014
rfoot -12.47 4.99327
rtoes -13.3674
lfemur -35.1259 -0.686961 -5.98456
ltibia 44.3473
lfoot -20.8272 -10.5556
ltoes -2.65771
437
root -10.2951 17.5192 -10.1779 -112.305 81.366 -121.884
lowerback 17.2417 1.33115 -1.62917
upperback 5.03887 1.72756 -0.538459
thorax -4.29352 0.974503 -0.00948025
lowerneck 2.4572 3.42764 6.52633
upperneck -21.5017 5.76922 -1.72062
head -6.73234 2.74239 -2.04905
rclavicle 1.74931e-014 -1.90833e-014
rhumerus -43.2607 8.04352 -87.5296
rradius 52.9538
rwrist -1.2184
rhand -7.23555 -14.8993
rfingers 7.12502
rthumb 18.6443 -44.0258
lclavicle 1.74931e-014 -1.90833e-014
lhumerus -38.878 -4.01308 75.3884
lradius 53.8684
lwrist 5.88267
lhand -3.86402 12.3524
lfingers 7.12502
lthumb 21.8845 41.1347
rfemur 9.34546 20.989 21.613
rtibia 6.36111e-015
rfoot -12.5513 4.94408
rtoes -13.1852
lfemur -34.9735 -0.805621 -5.98533
ltibia 44.2184
lfoot -20.7325 -10.5039
ltoes -2.78947
